<svg xmlns="http://www.w3.org/2000/svg" width="68" height="68" viewBox="0 0 68 68" fill="none"><metadata><rdf:RDF xmlns:rdf="http://www.w3.org/1999/02/22-rdf-syntax-ns#" xmlns:dc="http://purl.org/dc/elements/1.1/"><rdf:Description><dc:creator>RealFaviconGenerator</dc:creator><dc:source>https://realfavicongenerator.net</dc:source></rdf:Description></rdf:RDF></metadata><path d="M49.5015 16.1792C49.2266 16.6489 48.9816 17.1385 48.7671 17.6479L48.7651 17.6548C48.6415 17.9727 48.5266 18.2778 48.4204 18.5698L48.1274 19.4067L48.1235 19.4184C47.9469 20.0544 47.7884 20.6736 47.647 21.2749L47.6431 21.2924C47.5375 21.9609 47.4144 22.7871 47.2739 23.77C47.1332 24.6144 46.9576 25.6875 46.7466 26.9887L46.7456 26.9946C46.601 28.0359 46.418 29.2443 46.2017 30.6206C45.2507 28.2774 44.2818 26.4294 43.2905 25.0864C42.2295 23.6014 41.2294 22.4908 40.2886 21.7671V21.7661L39.8862 21.4731C38.9505 20.8254 38.0399 20.4433 37.1567 20.3452L37.1431 20.3432H37.1294C35.7277 20.3433 34.5544 20.6131 33.6255 21.1704C32.715 21.7167 31.9667 22.4281 31.3833 23.3032L31.3813 23.3051C30.8398 24.1355 30.4259 25.0547 30.1382 26.061C29.8532 27.0229 29.6566 27.9686 29.5493 28.8979C29.4434 29.7809 29.3729 30.5776 29.3374 31.2876C29.3022 31.9566 29.2673 32.4036 29.2339 32.6372L29.1909 32.9399L29.4956 32.9223C30.7297 32.8518 31.7732 32.7631 32.6245 32.6567C33.4713 32.5509 34.1474 32.4441 34.6499 32.3364L34.6548 32.3354C35.2582 32.1934 35.7467 32.05 36.1147 31.9028L36.1274 31.8969L36.1392 31.8911C36.6781 31.6037 37.2163 31.2628 37.7524 30.8696L37.7563 30.8667C38.2216 30.5088 38.7026 30.0811 39.1987 29.5854C39.4656 29.3364 39.7137 29.0606 39.9448 28.7612C39.8124 29.5089 39.6912 30.1628 39.5747 30.7221L39.5728 30.7329C39.5026 31.154 39.4376 31.5307 39.3765 31.8628L39.2056 32.726C39.0664 33.3179 38.9764 33.7816 38.939 34.1118C38.8687 34.4296 38.7816 34.8646 38.6782 35.4155C38.572 35.9113 38.449 36.5478 38.3081 37.3227C38.1952 37.944 38.0722 38.6887 37.937 39.5561C37.6179 39.0671 37.2868 38.6491 36.9429 38.3042H36.9438C36.4798 37.8044 36.045 37.4055 35.6411 37.1118L35.6372 37.1089L35.2876 36.8784C35.0567 36.7335 34.8291 36.6063 34.605 36.4966L34.2612 36.3403L34.2495 36.3374L33.5327 36.1245C33.2849 36.0537 33.0284 35.9833 32.7632 35.9126L32.7554 35.9106L31.9946 35.7505C31.7196 35.6972 31.4222 35.6433 31.104 35.5903C30.5033 35.4495 29.8514 35.3265 29.1489 35.2212L28.8511 35.1762L28.8618 35.477C28.9323 37.3794 29.0388 39.0205 29.1802 40.3989V40.3999C29.3209 41.7364 29.4437 42.8625 29.5493 43.7778L29.5503 43.7827C29.6914 44.8406 29.832 45.7256 29.9741 46.436L29.9771 46.4477C30.1573 47.1687 30.4446 47.9382 30.8354 48.7563V48.7573C31.0771 49.2943 31.3879 49.8895 31.7671 50.5415L32.1694 51.2124L32.1753 51.2221C32.6673 51.9457 33.2658 52.712 33.9653 53.5249C33.4776 53.4311 32.9751 53.3581 32.4575 53.311C31.6823 53.2405 30.994 53.1882 30.3931 53.1528H30.3901C29.8306 53.1262 29.29 53.1189 28.769 53.1323L28.2554 53.1528C27.7224 53.1795 27.1504 53.226 26.5396 53.2924L25.9165 53.3647C25.2091 53.4356 24.3977 53.5414 23.4829 53.6821C22.7897 53.7887 22.0664 53.9069 21.313 54.0337C21.6954 53.6061 22.0272 53.1776 22.3062 52.7466C22.6985 52.1402 22.9892 51.5964 23.1733 51.1176C23.3899 50.5756 23.5365 50.048 23.6099 49.5346L23.6108 49.5268L23.6118 49.52C23.648 49.0857 23.6655 48.1602 23.6655 46.7563C23.6655 45.3127 23.648 43.6406 23.6128 41.7407C23.5776 39.8054 23.5249 37.7646 23.4546 35.6186C23.3843 33.4733 23.314 31.4681 23.2437 29.604C23.1909 28.1783 23.1279 26.91 23.0552 25.7993L22.979 24.7407C22.9438 24.0735 22.9044 23.5341 22.8599 23.1245C22.8162 22.7233 22.765 22.4208 22.6997 22.2466L22.6978 22.2417L22.2241 21.0317H22.2251C21.9641 20.3465 21.4595 19.3975 20.7212 18.1899C22.6314 18.3421 24.3192 18.4376 25.7837 18.4702C27.4021 18.5054 28.7753 18.5229 29.9028 18.5229C30.8815 18.5229 31.7631 18.5032 32.5464 18.4633L33.2974 18.4165L33.3062 18.4155C34.2911 18.31 35.5746 18.1694 37.1567 17.9936L37.1626 17.9926C38.4989 17.8168 40.2219 17.5884 42.3315 17.3071L42.3354 17.3061C44.3203 17.0084 46.7092 16.6322 49.5015 16.1792Z" fill="#1F5B33" stroke="#438759" stroke-width="0.5"></path><path d="M47.251 13.9286C46.9761 14.3984 46.7311 14.8879 46.5166 15.3974L46.5146 15.4042C46.391 15.7222 46.2761 16.0272 46.1699 16.3192L45.877 17.1562L45.873 17.1679C45.6964 17.8038 45.538 18.4231 45.3965 19.0243L45.3926 19.0419C45.287 19.7104 45.1639 20.5366 45.0234 21.5194C44.8827 22.3639 44.7071 23.437 44.4961 24.7382L44.4951 24.744C44.3505 25.7854 44.1675 26.9937 43.9512 28.37C43.0003 26.0269 42.0313 24.1789 41.04 22.8358C39.979 21.3509 38.9789 20.2403 38.0381 19.5165V19.5155L37.6357 19.2226C36.7 18.5749 35.7894 18.1928 34.9062 18.0946L34.8926 18.0927H34.8789C33.4772 18.0927 32.3039 18.3625 31.375 18.9198C30.4645 19.4661 29.7162 20.1775 29.1328 21.0526L29.1309 21.0546C28.5894 21.8849 28.1754 22.8042 27.8877 23.8105C27.6027 24.7724 27.4061 25.718 27.2988 26.6474C27.1929 27.5303 27.1224 28.327 27.0869 29.037C27.0517 29.7061 27.0168 30.153 26.9834 30.3866L26.9404 30.6894L27.2451 30.6718C28.4792 30.6013 29.5227 30.5126 30.374 30.4062C31.2208 30.3003 31.8969 30.1935 32.3994 30.0858L32.4043 30.0849C33.0077 29.9429 33.4962 29.7995 33.8643 29.6523L33.877 29.6464L33.8887 29.6405C34.4276 29.3531 34.9658 29.0123 35.502 28.619L35.5059 28.6161C35.9711 28.2583 36.4521 27.8306 36.9482 27.3349C37.2151 27.0858 37.4633 26.8101 37.6943 26.5107C37.5619 27.2583 37.4407 27.9122 37.3242 28.4716L37.3223 28.4823C37.2521 28.9035 37.1872 29.2801 37.126 29.6122L36.9551 30.4755C36.8159 31.0673 36.7259 31.531 36.6885 31.8612C36.6182 32.1791 36.5311 32.614 36.4277 33.1649C36.3215 33.6608 36.1985 34.2972 36.0576 35.0722C35.9447 35.6934 35.8217 36.4381 35.6865 37.3056C35.3674 36.8166 35.0364 36.3986 34.6924 36.0536H34.6934C34.2293 35.5539 33.7945 35.155 33.3906 34.8612L33.3867 34.8583L33.0371 34.6278C32.8062 34.483 32.5786 34.3557 32.3545 34.246L32.0107 34.0898L31.999 34.0868L31.2822 33.8739C31.0344 33.8031 30.7779 33.7327 30.5127 33.662L30.5049 33.6601L29.7441 33.4999C29.4691 33.4467 29.1717 33.3928 28.8535 33.3398C28.2528 33.199 27.6009 33.076 26.8984 32.9706L26.6006 32.9257L26.6113 33.2265C26.6818 35.1288 26.7883 36.77 26.9297 38.1483V38.1493C27.0704 39.4859 27.1932 40.6119 27.2988 41.5273L27.2998 41.5321C27.4409 42.59 27.5816 43.475 27.7236 44.1855L27.7266 44.1972C27.9068 44.9181 28.1941 45.6877 28.585 46.5058V46.5067C28.8266 47.0438 29.1374 47.6389 29.5166 48.2909L29.9189 48.9618L29.9248 48.9716C30.4168 49.6951 31.0153 50.4615 31.7148 51.2743C31.2271 51.1805 30.7246 51.1075 30.207 51.0605C29.4318 50.99 28.7435 50.9376 28.1426 50.9023H28.1396C27.5801 50.8756 27.0395 50.8684 26.5186 50.8817L26.0049 50.9023C25.4719 50.9289 24.8999 50.9755 24.2891 51.0419L23.666 51.1142C22.9586 51.185 22.1473 51.2908 21.2324 51.4315C20.5392 51.5382 19.8159 51.6563 19.0625 51.7831C19.4449 51.3556 19.7767 50.9271 20.0557 50.496C20.448 49.8896 20.7387 49.3458 20.9229 48.8671C21.1394 48.3251 21.286 47.7974 21.3594 47.2841L21.3604 47.2763L21.3613 47.2694C21.3975 46.8352 21.415 45.9097 21.415 44.5058C21.415 43.0621 21.3975 41.39 21.3623 39.4901C21.3271 37.5549 21.2745 35.5141 21.2041 33.3681C21.1338 31.2228 21.0635 29.2176 20.9932 27.3534C20.9404 25.9278 20.8774 24.6594 20.8047 23.5487L20.7285 22.4901C20.6933 21.823 20.6539 21.2836 20.6094 20.8739C20.5658 20.4727 20.5145 20.1703 20.4492 19.996L20.4473 19.9911L19.9736 18.7812H19.9746C19.7136 18.096 19.209 17.147 18.4707 15.9394C20.3809 16.0916 22.0687 16.1871 23.5332 16.2196C25.1516 16.2548 26.5248 16.2724 27.6523 16.2724C28.6311 16.2724 29.5126 16.2526 30.2959 16.2128L31.0469 16.1659L31.0557 16.1649C32.0406 16.0594 33.3241 15.9189 34.9062 15.7431L34.9121 15.7421C36.2484 15.5663 37.9715 15.3378 40.0811 15.0565L40.085 15.0556C42.0698 14.7578 44.4587 14.3817 47.251 13.9286Z" fill="#B9F8CF" stroke="#438759" stroke-width="0.5"></path></svg>